<svg id="Layer_4" data-name="Layer 4" xmlns="http://www.w3.org/2000/svg" viewBox="0 0 317.9 330.13"><defs><style>.cls-1{opacity:0.38;}.cls-2{fill:#fbb040;}.cls-3{fill:#f7941d;}.cls-4{fill:#c49a6c;}.cls-4,.cls-5{stroke:#a97c50;stroke-miterlimit:10;stroke-width:3px;}.cls-5{fill:none;}</style></defs><title>Bun</title><g class="cls-1"><path class="cls-2" d="M134.74,98.27c-24.43-1.72-52.3,8.46-69.72,25.51a76.1,76.1,0,0,0-20.28,73.55C50,217,63.47,233.9,80.94,244.19c30.1,17.71,68.55,14.39,100.75,4.93,24-7.05,47.67-18.29,60.41-41.27a88,88,0,0,0,11.62-43.73c.1-20.44-8.87-41.32-23.17-55.76-18.24-18.43-41.74-25.45-67.2-26.1A97.14,97.14,0,0,0,135,85.84a79.14,79.14,0,0,0-34.2,20.22C90.11,116.94,86.1,126.18,81,140.41a54.57,54.57,0,0,0-1.28,28.71,53.58,53.58,0,0,0,8.54,26.77,54.48,54.48,0,0,0,18.55,20.2A54.14,54.14,0,0,0,131.25,229c18.43,4.2,39.12,3.29,55.48-7.25l14.57-11.26a71.94,71.94,0,0,0,18.52-31.77l.5-1.38-7.26,17.2.86-1.19-11.26,14.57,1.13-1-14.57,11.26,1.3-.73-17.2,7.26a11,11,0,0,1,2.85-.78L157,226.49a59.32,59.32,0,0,1,13,.28l-19.14-2.57a31.49,31.49,0,0,1,5.07,1.14l-17.2-7.26a10.47,10.47,0,0,1,2.68,1.48L126.84,208.3a10.51,10.51,0,0,1,1.89,1.88l-11.26-14.57a10.14,10.14,0,0,1,1.35,2.29l-7.25-17.2a10.26,10.26,0,0,1,.72,2.56l-2.57-19.14a10.39,10.39,0,0,1,0,3.1l2.57-19.14a10.6,10.6,0,0,1-1,2.95l7.25-17.2-.79,1.34L129,120.59a9.86,9.86,0,0,1-2.16,2.26l14.58-11.26a25.42,25.42,0,0,1-4.15,2.29l17.2-7.26a144.46,144.46,0,0,1-30.32,7.92L143.31,112a79,79,0,0,1-18.12.55l19.14,2.57a28.71,28.71,0,0,1-6.43-1.73l17.2,7.26a11.83,11.83,0,0,1-2.54-1.51l14.57,11.26-.94-.91L177.45,144l-.72-1,7.26,17.2-.39-1.14,2.57,19.14.05-1.2-9.83,36.34L177,212l-11.26,14.57,1.08-1-14.57,11.26a31.75,31.75,0,0,1,4.24-2.24l-17.2,7.26a37.91,37.91,0,0,1,8-2.1l-19.14,2.57a39.19,39.19,0,0,1,6.59-.08,54.23,54.23,0,0,0,27.74-6.2,53.91,53.91,0,0,0,23.17-14.89A53.82,53.82,0,0,0,200.54,198a54.15,54.15,0,0,0,6.2-27.74c-.83-18.62-7-37.93-21.09-50.91L171.08,108.1a71.69,71.69,0,0,0-36.34-9.83Z"/></g><g class="cls-1"><path class="cls-3" d="M139.74,111.57c-2.72-.43-5.44-.81-8.16-1.12a27.13,27.13,0,0,0-14.36,0c-7.85,1-13.71,2.49-21,6.81-12.25,7.24-22.9,20.64-26,34.54-4,17.92-2.44,37.58,6,53.94,8,15.47,23.51,25.08,39.5,30.38A71.61,71.61,0,0,0,143,239.67c6.48-.48,13.63-1.1,19.88-3.24,6-2,12.54-4.49,17.73-8.26,9-6.53,16.57-12.93,22.25-22.73,5.39-9.29,8-20.08,8.38-30.73.5-13.33-4.68-25.72-12.62-36a59.31,59.31,0,0,0-24.94-19,74,74,0,0,0-48.59-3.19c-13,3.47-25.47,13.2-32.27,24.82S83.17,170,87.37,182.93s12.32,25.67,24.81,32.27c12.93,6.83,27.23,9.27,41.61,5.44a20.19,20.19,0,0,1,3.43-.75l-14.35,1.93a29.7,29.7,0,0,1,5.25,0l-14.35-1.93a26.63,26.63,0,0,1,4.74,1.23l-12.9-5.45a9.68,9.68,0,0,1,2.4,1.42l-10.93-8.44.94,1-8.44-10.93.68,1.18L104.82,187l.35,1.39L103.24,174l0,1.43,1.93-14.36-.36,1.41,5.44-12.9a9.77,9.77,0,0,1-1.46,2.62l8.44-10.93a13,13,0,0,1-2,2.09l10.93-8.44a22.48,22.48,0,0,1-4.83,2.83l12.9-5.45a27.71,27.71,0,0,1-5.52,1.31L143,131.67a34.76,34.76,0,0,1-7.28-.21l14.36,1.93a39.46,39.46,0,0,1-6.93-1.89l12.9,5.44a20,20,0,0,1-3.55-2l10.93,8.45a8.16,8.16,0,0,1-1.79-1.92l8.44,10.93-.61-1.17,5.44,12.9-.43-1.56,1.93,14.35a74.43,74.43,0,0,1-.12-10.77l-1.93,14.36.46-1.48-13.89,23.83.71-.79-10.93,8.45,1-.41L110,215.56l1,.15a40.91,40.91,0,0,0,21.54,1,40.15,40.15,0,0,0,20.07-6.4c11.21-6.56,21.89-19.4,24.82-32.28,3.15-13.82,2.47-29.34-5.44-41.61-7.12-11-18.7-22.69-32.27-24.81Z"/></g><path class="cls-4" d="M90.15,164c-7.37,5-5.84,24.57,2.61,37.48,17.9,27.35,71.47,31.9,90.59,8.85,10-12.07,11.62-33,3.64-39-8.59-6.54-20.8,9.86-45.29,9.37C113.5,180.1,99.34,157.76,90.15,164Z"/><path class="cls-5" d="M90.15,164c3.87-2.59,28.56-12.42,49.46-12,27.18.59,45.15,16.93,47.38,19.25"/><path class="cls-4" d="M100.12,154.79c3.5,12,28.54,13.06,39.57,13.53,13.11.57,32.14,1.38,37-8.85,4.54-9.64-5.62-24.71-16.66-31.76-15.32-9.77-32.08-4-34.37-3.12C111.38,129.8,97.09,144.4,100.12,154.79Z"/></svg>