<?xml version="1.0" encoding="UTF-8"?>
<svg width="706px" height="799px" viewBox="0 0 706 799" version="1.1" xmlns="http://www.w3.org/2000/svg" xmlns:xlink="http://www.w3.org/1999/xlink">
    <!-- Generator: Sketch 57.1 (83088) - https://sketch.com -->
    <title>Group 3</title>
    <desc>Created with Sketch.</desc>
    <g id="Page-1" stroke="none" stroke-width="1" fill="none" fill-rule="evenodd">
        <g id="Calvino-Head-Hover" transform="translate(-596.000000, -289.000000)">
            <g id="Group-3" transform="translate(597.000000, 290.000000)">
                <g id="Group-12" stroke="#CBCB31" stroke-width="3">
                    <g id="Group-5" transform="translate(0.000000, 0.075429)">
                        <polyline id="Stroke-1" points="0.866014286 571.8416 13.3148714 676.105886 21.0965857 744.052886 41.3271571 774.1426 91.1241571 795.928886 159.594443 795.928886 240.513586 783.480029 313.652586 753.912029 377.455729 702.559314 419.471014 646.537886 441.258871 637.200457 459.932157 644.982171 487.942871 643.426457 509.729157 618.527171 531.515443 601.408029 565.750586 578.0676 596.8743 548.4996 604.030586 508.665457 529.225871 547.077457 512.378586 584.141171 513.052729 601.664171 532.596586 590.208457 566.291157 545.729171 566.291157 534.946029"></polyline>
                        <polyline id="Stroke-3" points="56.8880714 297.958729 92.6789286 232.599871 125.358357 109.663871 181.379786 73.8730143 268.524929 14.7385857 347.888357 0.732442857 498.836643 17.8515857 542.407643 38.0821571 561.0825 78.5417286 621.772643 89.4348714 674.681071 168.7983 702.691786 251.274729 676.236786 339.975586 638.890214 430.232157 604.655071 501.815443 540.851929 523.601729 495.723643 579.623157 447.482357 405.334443 464.6015 297.958729 503.503786 221.7083 444.370929 133.005871 354.460071 167.241014 332.328071 112.776871 270.080643 83.2088714 249.850071 58.3111571 123.1175 180.640586 56.8880714 297.958729 63.1125 369.542014 31.9887857 411.558871 0.866642857 487.8093 8.64678571 532.937586 0.866642857 571.841443"></polyline>
                    </g>
                    <polyline id="Stroke-6" points="132.531457 391.0676 135.143171 348.639029 135.143171 334.929886 123.3936 352.555029 111.644029 325.138314 60.0760286 272.918171 38.5348857 291.195457 109.684457 342.763457 124.624029 363.064743 129.3446 404.0916 48.9958857 506.155886 50.4447429 538.730029 66.3680286 560.4456 86.8390286 566.237886 113.419743 552.483171 135.143171 566.237886 164.813314 571.304171 174.947457 559.721171 174.947457 540.901743 164.090457 562.617314"></polyline>
                    <polyline id="Stroke-7" points="196.732171 403.150314 182.2876 422.111171 213.458457 389.826171 266.676457 382.9826 329.778743 393.627457 373.8746 455.969171 302.409171 422.111171 247.670029 403.510171 218.018743 398.406171 189.575886 424.396029"></polyline>
                    <polyline id="Stroke-8" points="242.142371 441.545186 257.055229 464.659329 297.692371 471.743329 255.563943 441.545186 256.3088 456.643471 267.866657 461.678329 246.2438 441.545186 250.717657 434.835186 273.8318 462.050757"></polyline>
                    <polygon id="Stroke-9" points="57.6445571 600.198029 91.4632714 630.2956 146.585843 652.954029 202.046271 652.954029 139.484557 666.482457 87.7421286 639.089314 57.8315571 624.671457"></polygon>
                    <polyline id="Stroke-10" points="58.9974 593.772771 100.255257 627.929343 142.526686 646.866629 211.515543 651.602914"></polyline>
                    <polyline id="Stroke-11" points="86.4359571 392.798686 95.7451 392.798686 110.8921 376.737114 71.6519571 367.245686 83.3339571 393.893971 97.0226714 381.665114 84.7938143 378.196971 102.132957 391.338829 79.6835286 371.9914 67.4546714 373.999686 82.9678143 386.046257"></polyline>
                </g>
                <g id="Group-2" transform="translate(295.000000, 508.000000)" fill="#D1B826">
                    <text id="meet-calvino" font-family="HiraKakuStdN-W8, Hiragino Kaku Gothic StdN" font-size="24" font-weight="600">
                        <tspan x="0" y="21">meet calvino </tspan>
                    </text>
                    <path id="Line" d="M200.5,9.5 L209.5,14 L200.5,18.5 L200.5,14.5 L185.5,14.5 L185.5,13.5 L200.5,13.5 L200.5,9.5 Z" fill-rule="nonzero"></path>
                </g>
            </g>
        </g>
    </g>
</svg>